# xmcd
#
# Track frame offsets:
#  150
#  16245
#  26545
#  39055
#  48160
#  58598
#  71108
#  85417
#  100060
#  112382
#  123960
#  132535
#  142855
#  153000
#  163965
#  173432
#  183752
#  201330
#  208545
#  219175
#  227400
#  236392
#  245650
#  261220
#  270435
#  280937
#  288192
#  305027
#  315430
#
# Disc length: 4405 seconds
#
# Revision: 0
# Processed by: cddbd v1.5.1PL0 Copyright (c) Steve Scherf et al.
# Submitted via: Collectorz.com_Music_Collector 6.9
#
DISCID=8e11331d
DTITLE=Dick rivers - The dick n'roll machine
DYEAR=1900
DGENRE=
TTITLE0=Money
TTITLE1=JB Good
TTITLE2=Lonely blue boy
TTITLE3=Rip it up
TTITLE4=good golly miss molly
TTITLE5=my baby
TTITLE6=jenny jenny
TTITLE7=not fade away
TTITLE8=heartbreak hotel
TTITLE9=mystery train
TTITLE10=sweet little 16
TTITLE11=any way you want me
TTITLE12=baby let's play house
TTITLE13=whole lotta shaking goin' on
TTITLE14=send me some lovin'
TTITLE15=hold on
TTITLE16=when the plane
TTITLE17=baby i don't care
TTITLE18=that's all right mama
TTITLE19=blueberry hill
TTITLE20=twenty flight rock
TTITLE21=it's been nice
TTITLE22=fever
TTITLE23=party
TTITLE24=one night
TTITLE25=great balls of fire
TTITLE26=all i have to do is dream/donna
TTITLE27=slippin' and slidin'
TTITLE28=i got a woman
EXTD=
EXTT0=
EXTT1=
EXTT2=
EXTT3=
EXTT4=
EXTT5=
EXTT6=
EXTT7=
EXTT8=
EXTT9=
EXTT10=
EXTT11=
EXTT12=
EXTT13=
EXTT14=
EXTT15=
EXTT16=
EXTT17=
EXTT18=
EXTT19=
EXTT20=
EXTT21=
EXTT22=
EXTT23=
EXTT24=
EXTT25=
EXTT26=
EXTT27=
EXTT28=
PLAYORDER=
